HIERARCHY
ROOT root
{
	OFFSET 0.000000 0.000000 0.000000
	CHANNELS 6 Xposition Yposition Zposition Zrotation Yrotation Xrotation
	JOINT lhip
	{
		OFFSET 0.058581 -0.082280 -0.017664
		CHANNELS 3 Zrotation Yrotation Xrotation
		JOINT lknee
		{
			OFFSET 0.043451 -0.386469 0.008037
			CHANNELS 3 Zrotation Yrotation Xrotation
			JOINT lankle
			{
				OFFSET -0.014790 -0.426874 -0.037428
				CHANNELS 3 Zrotation Yrotation Xrotation
				JOINT ltoe
				{
					OFFSET 0.041054 -0.060286 0.122042
					CHANNELS 3 Zrotation Yrotation Xrotation
					End Site
					{
						OFFSET 0.000000 0.000000 0.000000
					}
				}
			}
		}
	}
	JOINT rhip
	{
		OFFSET -0.060310 -0.090513 -0.013543
		CHANNELS 3 Zrotation Yrotation Xrotation
		JOINT rknee
		{
			OFFSET -0.043257 -0.383688 -0.004843
			CHANNELS 3 Zrotation Yrotation Xrotation
			JOINT rankle
			{
				OFFSET 0.019056 -0.420046 -0.034562
				CHANNELS 3 Zrotation Yrotation Xrotation
				JOINT rtoe
				{
					OFFSET -0.034840 -0.062106 0.130323
					CHANNELS 3 Zrotation Yrotation Xrotation
					End Site
					{
						OFFSET 0.000000 0.000000 0.000000
					}
				}
			}
		}
	}
	JOINT lowerback
	{
		OFFSET 0.004439 0.124404 -0.038385
		CHANNELS 3 Zrotation Yrotation Xrotation
		JOINT upperback
		{
			OFFSET 0.004488 0.137956 0.026820
			CHANNELS 3 Zrotation Yrotation Xrotation
			JOINT chest
			{
				OFFSET -0.002265 0.056032 0.002855
				CHANNELS 3 Zrotation Yrotation Xrotation
				JOINT lowerneck
				{
					OFFSET -0.013390 0.211636 -0.033468
					CHANNELS 3 Zrotation Yrotation Xrotation
					JOINT upperneck
					{
						OFFSET 0.010113 0.088937 0.050410
						CHANNELS 3 Zrotation Yrotation Xrotation
						End Site
						{
							OFFSET 0.000000 0.000000 0.000000
						}
					}
				}
				JOINT lclavicle
				{
					OFFSET 0.071702 0.114000 -0.018898
					CHANNELS 3 Zrotation Yrotation Xrotation
					JOINT lshoulder
					{
						OFFSET 0.122921 0.045205 -0.019046
						CHANNELS 3 Zrotation Yrotation Xrotation
						JOINT lelbow
						{
							OFFSET 0.255332 -0.015649 -0.022946
							CHANNELS 3 Zrotation Yrotation Xrotation
							JOINT lwrist
							{
								OFFSET 0.265709 0.012698 -0.007375
								CHANNELS 3 Zrotation Yrotation Xrotation
								End Site
								{
									OFFSET 0.000000 0.000000 0.000000
								}
							}
						}
					}
				}
				JOINT rclavicle
				{
					OFFSET -0.082954 0.112472 -0.023707
					CHANNELS 3 Zrotation Yrotation Xrotation
					JOINT rshoulder
					{
						OFFSET -0.113228 0.046853 -0.008472
						CHANNELS 3 Zrotation Yrotation Xrotation
						JOINT relbow
						{
							OFFSET -0.260127 -0.014369 -0.031269
							CHANNELS 3 Zrotation Yrotation Xrotation
							JOINT rwrist
							{
								OFFSET -0.269108 0.006794 -0.006027
								CHANNELS 3 Zrotation Yrotation Xrotation
								End Site
								{
									OFFSET 0.000000 0.000000 0.000000
								}
							}
						}
					}
				}
			}
		}
	}
}
MOTION
Frames: 17
Frame Time: 0.033333
0.353186 2.079656 0.988114 -0.547545 0.827498 86.151333 -7.609232 -3.164543 3.858192 -0.869466 -12.340874 7.502571 10.447224 10.886602 -23.040510 0.000000 -0.000000 0.000000 -3.545900 0.326253 -25.271809 -2.972849 -11.575741 42.558673 6.710204 -15.185158 -8.529853 0.000000 -0.000000 0.000000 -0.405848 -2.761305 11.786528 2.250037 -1.609713 2.073752 1.157711 -2.163661 1.390324 2.488373 0.268626 4.424510 -0.778449 0.018045 4.951444 -20.478826 -14.673406 -0.142074 -54.824716 -25.382790 17.153392 13.236003 -59.620006 5.932527 -0.929800 -12.693264 -8.252919 17.441276 15.371746 -1.383559 43.555339 18.300837 20.547421 -8.305669 70.295486 16.404854 8.567934 12.374892 6.505610 
0.352360 2.052912 0.985406 0.356672 0.672794 86.431863 -7.705687 -2.240683 5.212218 -0.894852 -13.659879 7.847271 10.108210 10.600007 -24.566572 0.000000 -0.000000 0.000000 -3.574526 0.060537 -26.826013 -2.638154 -11.962394 33.979512 7.531619 -14.641336 -7.213096 0.000000 -0.000000 0.000000 -0.628450 -2.990206 12.112519 2.355317 -1.763313 2.042267 1.282269 -2.565059 1.501964 3.062650 0.413528 3.910018 -0.552096 -0.927779 4.459591 -20.932775 -13.412677 -0.203989 -53.496779 -24.659053 17.104266 8.961966 -57.324491 13.397301 -1.755077 -12.727986 -1.063012 18.519409 13.003673 -1.427471 44.234938 15.449613 19.802545 -8.286707 65.859001 14.767657 9.301603 11.057678 3.251571 
0.351292 2.025215 0.981213 1.119882 0.338816 86.940522 -7.906499 -1.448500 6.588118 -0.875950 -14.943733 7.671288 9.766908 10.516995 -25.578968 0.000000 -0.000000 0.000000 -3.539768 -0.080135 -27.890926 -2.007060 -11.494354 24.432240 8.773363 -14.076355 -4.670614 0.000000 -0.000000 0.000000 -0.937646 -3.153241 12.129479 2.388879 -1.887405 1.840464 1.370503 -2.924266 1.894775 3.398010 0.510136 3.755026 -0.183204 -1.603666 3.641058 -20.967611 -12.158140 -0.039498 -52.783009 -23.715158 17.255687 5.317275 -53.644944 18.882833 -1.258364 -12.232767 3.105828 19.441486 10.693126 -1.465431 45.859668 13.080466 18.859997 -9.996863 58.914792 10.860117 7.982900 9.608324 1.073885 
0.349330 1.988926 0.974944 2.139360 -0.231382 87.710660 -7.902539 -0.335894 8.356736 -1.088186 -16.490603 7.275610 8.890170 10.159635 -26.855713 0.000000 -0.000000 0.000000 -3.533518 -0.191659 -28.468342 -1.419230 -10.603150 12.881001 10.912034 -12.741424 -3.361366 0.000000 -0.000000 0.000000 -1.376826 -3.300670 12.118960 2.430228 -2.191072 1.458534 1.483955 -3.422929 2.280855 3.762093 0.934380 3.957408 0.154036 -2.343621 2.525489 -21.065291 -10.331135 0.394029 -52.687250 -22.182531 17.523216 2.326278 -46.516698 22.493498 0.769262 -11.968266 5.443304 20.771778 7.776582 -1.742422 48.732554 10.955231 17.131580 -12.505684 46.773615 4.478934 4.351838 7.537299 -0.848681 
0.347764 1.966195 0.970966 2.828804 -0.627857 88.009127 -7.754884 0.492469 9.556997 -1.331467 -17.379881 7.226041 8.138285 9.753963 -27.570468 0.000000 -0.000000 0.000000 -3.653863 -0.338772 -28.549338 -1.261870 -10.730077 7.873124 12.473943 -11.917176 -3.738603 0.000000 -0.000000 0.000000 -1.682339 -3.473105 12.159025 2.488849 -2.471963 1.508083 1.517919 -3.684481 2.395967 4.101806 1.366550 4.044539 0.148551 -2.828626 2.034892 -21.244141 -9.316923 0.707347 -52.823673 -21.148521 17.400172 1.802139 -41.223885 23.185496 1.338233 -11.599891 6.789352 21.583626 6.419181 -1.930038 50.659716 10.220133 15.585322 -14.253808 37.998920 -0.873111 2.541926 5.827630 -3.162368 
0.345306 1.934509 0.966132 3.871720 -1.112643 88.105622 -7.436191 1.619284 11.315698 -1.705817 -18.911583 7.683574 7.212656 9.359837 -28.319236 0.000000 -0.000000 0.000000 -3.947800 -0.695947 -29.090428 -1.121914 -11.667941 6.577122 13.513812 -11.916330 -4.296032 0.000000 -0.000000 0.000000 -1.950839 -3.966687 12.854485 2.565563 -2.608198 1.158996 1.480228 -4.130470 2.531058 4.667865 1.805825 3.941095 -0.143268 -3.230138 1.730636 -21.830669 -7.912931 1.124735 -52.959434 -19.482863 16.815184 1.761802 -33.573038 23.876815 1.906428 -10.823049 8.894946 22.545093 4.790183 -2.293882 52.752357 9.477292 13.156247 -15.338799 26.104103 -8.086218 -0.243198 3.050519 -7.215487 
0.342405 1.901006 0.962602 4.991596 -1.240321 87.975552 -6.635535 2.462573 13.231994 -2.213182 -20.784080 8.572427 6.190382 9.240410 -28.660653 0.000000 -0.000000 0.000000 -3.957245 -0.507313 -29.504772 -1.151952 -11.799286 9.507613 12.436582 -13.205935 -4.145341 0.000000 -0.000000 0.000000 -1.668786 -4.831341 13.584046 2.652815 -2.533759 1.090901 1.241028 -4.491162 2.730685 5.148994 1.904489 3.487556 -0.597154 -3.246310 1.500133 -22.842460 -6.450862 1.522169 -52.704568 -17.577139 15.702006 2.117130 -26.167440 24.078857 2.207180 -9.629377 10.441192 23.287006 3.299157 -2.793201 53.547316 8.664890 10.929193 -14.621687 15.863463 -12.798518 -2.877077 0.403635 -9.974460 
0.338803 1.865442 0.961375 6.226341 -1.076337 88.014169 -5.459190 2.671636 14.868753 -2.837826 -22.524097 9.828326 4.757667 9.183811 -28.122540 0.000000 -0.000000 0.000000 -3.723986 0.147423 -29.156023 -1.155702 -10.882402 12.320777 11.208312 -13.919948 -1.413980 0.000000 -0.000000 0.000000 -1.041209 -5.621807 13.943182 2.797547 -2.498984 1.243231 1.141727 -4.736435 2.919842 5.129299 1.363359 3.014204 -0.803180 -2.761876 1.147932 -24.022545 -4.796870 2.024152 -52.434861 -15.384970 14.308819 2.910475 -19.877950 22.549729 1.290382 -8.180060 10.926591 23.841613 1.862911 -3.023076 52.894667 6.852491 9.430182 -12.742794 8.640533 -13.752093 -2.335695 -0.899021 -9.965891 
0.334636 1.828771 0.963982 6.884153 -0.584250 88.388763 -4.308546 2.236936 15.722721 -3.452041 -23.636424 11.906557 2.954647 9.328338 -26.561030 0.000000 -0.000000 0.000000 -3.257720 1.091359 -29.056494 -1.106936 -9.619956 14.873741 9.142753 -15.213972 3.622919 0.000000 -0.000000 0.000000 -0.027511 -6.170025 13.956600 3.063256 -2.156634 1.651858 1.138105 -4.654669 2.913290 4.510971 0.120797 2.493404 -0.712197 -1.898267 0.721538 -25.415229 -2.743044 2.635833 -51.914397 -13.010796 12.641602 3.780753 -15.586863 19.875630 -1.649472 -6.772905 10.310801 24.593333 0.210535 -2.669184 51.521680 3.747898 8.921470 -11.578030 5.916250 -11.883568 2.890840 -0.770718 -8.243561 
0.328631 1.780537 0.971082 6.517120 0.124054 89.052490 -3.318080 1.444948 15.386461 -4.598260 -23.780148 16.542938 -0.106390 9.202558 -23.094413 0.000000 -0.000000 0.000000 -1.974869 2.313363 -28.294034 -1.058225 -8.627475 17.281899 5.792820 -15.618157 5.044521 0.000000 -0.000000 0.000000 1.210518 -6.227548 13.472029 3.599746 -1.628105 2.486613 1.172109 -4.192078 2.744980 3.514791 -0.873570 2.660994 -0.555302 -1.294084 -0.473773 -26.557298 0.142416 3.446287 -51.078603 -9.122994 10.895294 4.260146 -14.012100 17.179427 -4.968912 -5.742365 8.271188 25.064475 -2.299750 -1.661645 50.604845 -1.029891 9.259614 -11.064714 8.684709 -7.715464 8.048200 0.035994 -7.331472 
0.323368 1.741461 0.977737 5.790117 0.473828 89.353377 -2.973481 0.715014 13.563419 -6.160054 -22.779309 22.728683 -3.394174 8.495419 -18.044981 0.000000 -0.000000 0.000000 -0.816979 2.970428 -26.475968 -0.954267 -8.080790 17.936282 3.724223 -14.651300 4.542933 0.000000 -0.000000 0.000000 1.797352 -5.657256 13.366687 4.078907 -1.544735 2.611102 1.174501 -3.853027 2.846552 2.972712 -0.900620 3.012741 -0.547854 -1.131558 -0.927174 -26.674115 2.697989 3.772614 -50.522413 -5.872459 10.032734 3.920642 -14.266792 16.367687 -7.133319 -5.966886 6.949008 25.066604 -4.541812 -1.250757 50.683820 -3.998919 9.548722 -10.676785 11.397638 -4.764932 10.111391 0.821976 -7.392525 
0.317813 1.703092 0.983468 5.039424 0.669533 89.744372 -2.726744 -0.165120 9.777705 -8.357606 -20.517123 30.708877 -5.685700 7.492763 -10.146067 0.000000 -0.000000 0.000000 0.479427 3.139210 -24.705765 -1.020956 -7.397238 18.516598 1.982177 -13.748371 2.646530 0.000000 -0.000000 0.000000 1.980963 -4.684698 12.868493 4.646191 -1.741078 2.604036 1.128321 -3.589061 3.111242 2.703304 -0.746688 3.451346 -0.459885 -1.197993 -1.259533 -26.153906 5.123273 3.964407 -50.123154 -3.144035 9.644758 3.315521 -14.938551 16.919072 -8.891602 -6.154146 5.690162 24.730419 -6.588042 -1.145648 51.547276 -5.618652 9.462069 -10.693437 12.671346 -3.074956 11.394714 1.238965 -8.884476 
0.312729 1.666382 0.988038 4.433417 0.824371 89.745049 -2.519837 -1.154897 5.274747 -10.588445 -17.589115 39.110078 -5.256400 6.935923 -2.105698 0.000000 -0.000000 0.000000 1.659862 3.022192 -22.427421 -0.991621 -6.758037 18.841498 0.285436 -13.226480 0.372342 0.000000 -0.000000 0.000000 2.032716 -3.480226 12.788305 5.098197 -1.993549 2.375605 1.117503 -3.364302 3.418357 2.424399 -0.848982 3.510857 -0.215558 -1.387842 -1.391926 -25.297268 6.738303 4.206973 -49.825762 -1.082380 9.262135 2.733693 -15.644386 18.012000 -10.149738 -5.877312 4.541719 24.347234 -7.667549 -1.029001 52.768814 -6.330490 8.932395 -11.129367 12.795738 -2.974136 11.850820 1.115294 -10.923569 
0.308133 1.631582 0.991280 3.742258 0.753370 89.221450 -2.468182 -1.840388 0.851116 -11.764756 -13.874352 46.779791 -3.711963 7.628446 0.067527 0.000000 -0.000000 0.000000 2.505955 2.683141 -19.521127 -0.876864 -5.858904 18.835591 -0.565271 -13.011005 -1.755954 0.000000 -0.000000 0.000000 1.757699 -2.041092 13.223231 5.412698 -2.095955 2.099857 1.157263 -3.122046 3.936575 2.408305 -1.047649 2.847117 -0.157012 -1.952201 -1.165342 -24.682854 7.398003 4.160457 -49.417824 0.122371 8.844305 2.478280 -15.948117 18.774980 -10.854702 -5.617270 3.983871 24.511536 -7.661957 -1.135157 53.590696 -6.169398 8.641041 -11.513441 12.121120 -3.410107 11.612867 0.679484 -11.788615 
0.303949 1.597863 0.993853 2.849075 0.510797 88.746646 -2.361631 -2.376139 -3.681863 -11.210225 -9.493259 52.460598 -2.290281 9.066804 -3.763344 0.000000 -0.000000 0.000000 3.250727 2.280352 -16.637210 -0.996602 -4.654455 18.620143 -0.636851 -12.979548 -3.820487 0.000000 -0.000000 0.000000 1.325573 -0.537424 13.516013 5.523347 -2.042605 1.849392 1.211336 -2.707648 4.332515 2.513250 -1.299109 2.419962 -0.259093 -2.663130 -1.196159 -24.619163 7.387366 3.859679 -48.743105 0.562222 8.444189 2.557391 -15.655451 19.007433 -10.811897 -5.496995 4.164235 25.080762 -6.880733 -1.288017 53.598760 -5.281980 8.871339 -11.339196 11.239934 -3.045337 10.848176 0.304256 -11.223742 
0.300574 1.564761 0.995930 1.853638 0.155391 88.271973 -2.137172 -2.973590 -8.069104 -10.063308 -5.548627 55.905258 -0.715935 10.109762 -8.353734 0.000000 -0.000000 0.000000 3.706592 1.625873 -13.570404 -1.039502 -3.364855 17.959267 -0.480527 -12.859001 -5.647997 0.000000 -0.000000 0.000000 0.898043 0.948876 13.700226 5.420407 -1.944088 1.621909 1.259523 -2.230687 4.566915 2.516217 -1.573977 2.326351 -0.338567 -3.165156 -1.190627 -24.755715 6.911414 3.435998 -48.284181 0.437165 8.130532 2.933480 -15.298321 18.816472 -9.884358 -5.404456 4.400595 25.526502 -5.597394 -1.405546 53.201759 -3.862307 9.444366 -10.781788 11.003013 -1.860678 9.870674 0.007871 -9.835353 
0.297917 1.532426 0.997202 0.844103 -0.213208 87.849233 -1.731261 -3.721903 -12.250584 -9.157984 -2.404514 57.207617 0.734368 10.775401 -12.476184 0.000000 -0.000000 0.000000 3.818914 0.737999 -10.549006 -0.933028 -2.115489 17.200686 -0.180766 -12.410864 -7.341130 0.000000 -0.000000 0.000000 0.596054 2.356161 13.779664 5.125070 -1.876594 1.334705 1.227159 -1.767476 4.788910 2.565844 -1.707463 2.355073 -0.364487 -3.495625 -1.002031 -24.780851 6.304416 2.830615 -48.251396 -0.071082 8.042305 3.447267 -15.596865 18.353554 -8.471909 -5.348646 4.108275 25.648855 -4.149018 -1.566792 52.684385 -1.887388 10.176193 -10.006931 11.527020 -0.301594 9.035810 -0.062537 -8.433712 
